<svg width="25" height="24" viewBox="0 0 25 24" fill="none" xmlns="http://www.w3.org/2000/svg">
<path fill-rule="evenodd" clip-rule="evenodd" d="M12.5 3C9.46243 3 7 5.46243 7 8.5C7 11.5376 9.46243 14 12.5 14C15.5376 14 18 11.5376 18 8.5C18 5.46243 15.5376 3 12.5 3ZM5 8.5C5 4.35786 8.35786 1 12.5 1C16.6421 1 20 4.35786 20 8.5C20 10.4691 19.2412 12.2609 18 13.5991V22C18 22.3466 17.8205 22.6684 17.5257 22.8507C17.2309 23.0329 16.8628 23.0494 16.5528 22.8944L12.5 20.868L8.44721 22.8944C8.13723 23.0494 7.76909 23.0329 7.47427 22.8507C7.17945 22.6684 7 22.3466 7 22V13.5991C5.75883 12.2609 5 10.4691 5 8.5ZM9 15.135V20.382L12.0528 18.8556C12.3343 18.7148 12.6657 18.7148 12.9472 18.8556L16 20.382V15.135C14.9551 15.6873 13.7641 16 12.5 16C11.2359 16 10.0449 15.6873 9 15.135ZM11.4672 6.97849C11.4614 6.99626 11.4545 7.01341 11.4465 7.02986C11.3883 7.14961 11.2739 7.23273 11.142 7.25107C11.1239 7.25359 11.1054 7.25489 11.0867 7.25489H8.97572C8.58823 7.25489 8.42712 7.75073 8.7406 7.97849L10.4485 9.21932C10.4636 9.2303 10.4777 9.2422 10.4909 9.25488C10.5868 9.34723 10.6305 9.48173 10.6072 9.6128C10.604 9.63082 10.5995 9.64877 10.5938 9.66653L9.94142 11.6742C9.82168 12.0428 10.2435 12.3492 10.557 12.1214L12.2648 10.8806C12.2799 10.8696 12.2956 10.8598 12.3118 10.8512C12.4292 10.7886 12.5706 10.7886 12.6881 10.8512C12.7042 10.8598 12.7199 10.8696 12.735 10.8806L14.4429 12.1214C14.7564 12.3492 15.1782 12.0428 15.0584 11.6742L14.4061 9.66653C14.4003 9.64877 14.3958 9.63082 14.3926 9.6128C14.3693 9.48173 14.413 9.34723 14.5089 9.25488C14.5221 9.2422 14.5363 9.2303 14.5514 9.21932L16.2593 7.97849C16.5727 7.75073 16.4116 7.25489 16.0241 7.25489H13.9131C13.8944 7.25489 13.876 7.25359 13.8579 7.25107C13.726 7.23273 13.6116 7.14961 13.5534 7.02986C13.5454 7.01341 13.5385 6.99626 13.5327 6.97849L12.8803 4.97079C12.7606 4.60227 12.2392 4.60227 12.1195 4.97079L11.4672 6.97849ZM12.4949 8.79834L12.4999 8.79471L12.5049 8.79834L12.503 8.80423H12.4968L12.4949 8.79834Z" fill="black"/>
</svg>
