<svg width="20" height="21" viewBox="0 0 20 21" fill="none" xmlns="http://www.w3.org/2000/svg">
<path fill-rule="evenodd" clip-rule="evenodd" d="M5.03319 4.58252C5.32717 2.39771 7.51054 0.58252 9.99959 0.58252C12.4886 0.58252 14.672 2.39771 14.966 4.58252H17.8466C18.9511 4.58252 19.8466 5.47795 19.8466 6.58252C19.8466 6.67716 19.8399 6.77168 19.8265 6.86536L18.1122 18.8654C17.9714 19.8507 17.1276 20.5825 16.1323 20.5825H3.86688C2.87158 20.5825 2.02774 19.8507 1.88699 18.8654L0.172699 6.86536C0.0164898 5.77189 0.776288 4.75883 1.86976 4.60262C1.96344 4.58924 2.05796 4.58252 2.1526 4.58252H5.03319ZM7.07227 4.58252H12.928C12.624 3.5206 11.3982 2.58252 10.0001 2.58252C8.60211 2.58252 7.37626 3.5206 7.07227 4.58252ZM2.15234 6.58252H4.99933V8.58252H6.99933V6.58252H12.9993V8.58252H14.9993V6.58252H17.8463L16.132 18.5825H3.86663L2.15234 6.58252Z" fill="white"/>
</svg>
