<svg width="20" height="20" viewBox="0 0 20 20" fill="none" xmlns="http://www.w3.org/2000/svg">
<path fill-rule="evenodd" clip-rule="evenodd" d="M14.1393 1.60009e-05C12.8232 0 11.9749 0.171383 11.0024 0.691711C10.6424 0.884353 10.3046 1.11635 9.99088 1.38701C9.68927 1.13153 9.36498 0.910178 9.01983 0.723571C8.02847 0.187592 7.13662 0 5.86777 0C2.46949 0 0 3.07786 0 7.07526C0 10.0941 1.53985 13.0102 4.40804 15.8301C5.91354 17.3102 7.83575 18.7749 9.21237 19.5542L10 20L10.7876 19.5542C12.1643 18.7749 14.0865 17.3102 15.592 15.8301C18.4602 13.0102 20 10.0941 20 7.07526C20 3.12017 17.5072 0.0152621 14.1393 1.60009e-05ZM18.182 7.0751C18.182 9.4402 16.8967 11.8743 14.3763 14.3522C13.0022 15.7031 11.2356 17.0532 10.0002 17.7615C8.76476 17.0532 6.99819 15.7031 5.62406 14.3522C3.10365 11.8743 1.81836 9.4402 1.81836 7.0751C1.81836 4.12156 3.53076 1.9873 5.86795 1.9873C6.8768 1.9873 7.49847 2.11807 8.21393 2.50488C8.63655 2.73337 9.01006 3.03507 9.33339 3.41209L10.0023 4.1921L10.6651 3.40591C10.9957 3.01378 11.3747 2.70521 11.8019 2.47664C12.4964 2.10506 13.0793 1.9873 14.1357 1.98731C16.444 1.99777 18.182 4.16255 18.182 7.0751Z" fill="white"/>
</svg>
